<?xml version="1.0" standalone="no"?>
<!DOCTYPE svg PUBLIC "-//W3C//DTD SVG 20010904//EN"
 "http://www.w3.org/TR/2001/REC-SVG-20010904/DTD/svg10.dtd">
<svg version="1.0" xmlns="http://www.w3.org/2000/svg"
 width="100.000000pt" height="100.000000pt" viewBox="0 0 100.000000 100.000000"
 preserveAspectRatio="xMidYMid meet">

<g transform="translate(0.000000,100.000000) scale(0.100000,-0.100000)"
fill="#000000" stroke="none">
<path d="M417 890 c-121 -31 -220 -127 -259 -252 -74 -239 103 -488 347 -488
244 0 421 249 347 488 -34 106 -106 188 -207 233 -53 24 -170 33 -228 19z
m156 -101 c63 -15 128 -68 162 -130 26 -47 30 -64 30 -134 0 -70 -4 -87 -30
-134 -48 -87 -135 -139 -230 -139 -95 0 -182 52 -230 139 -26 47 -30 64 -30
134 0 70 4 87 30 134 60 109 178 161 298 130z"/>
</g>
</svg>
